<svg width="42" height="42" viewBox="0 0 42 42" fill="none" xmlns="http://www.w3.org/2000/svg">
<path fill-rule="evenodd" clip-rule="evenodd" d="M38.5044 13.8125C38.3139 13.2075 38.068 12.6075 37.7658 12.0168C36.9338 10.3908 35.6815 8.85066 34.0311 7.51462C32.3802 6.17815 30.3808 5.08732 28.1335 4.33376C25.8871 3.58051 23.4614 3.1875 21 3.1875C18.5386 3.1875 16.1129 3.58051 13.8665 4.33377C11.6192 5.08732 9.61982 6.17815 7.96889 7.51462C6.31849 8.85066 5.06621 10.3908 4.23421 12.0168C3.93197 12.6075 3.68606 13.2075 3.49559 13.8125L38.5044 13.8125ZM41.6276 13.8125C41.3601 12.6783 40.95 11.5663 40.4015 10.4944C39.3461 8.43185 37.7993 6.55778 35.8492 4.97918C33.8992 3.40059 31.5842 2.14838 29.0364 1.29405C26.4885 0.439718 23.7578 0 21 0C18.2422 0 15.5115 0.439718 12.9636 1.29405C10.4158 2.14838 8.10079 3.40059 6.15076 4.97919C4.20073 6.55778 2.65388 8.43185 1.59853 10.4944C1.05004 11.5663 0.639893 12.6783 0.372443 13.8125C0.125293 14.8606 0 15.9278 0 17L42 17C42 15.9278 41.8747 14.8606 41.6276 13.8125Z" fill="black"/>
<path fill-rule="evenodd" clip-rule="evenodd" d="M39 32H3V37C3 38.1046 3.89543 39 5 39H37C38.1046 39 39 38.1046 39 37V32ZM0 29V37C0 39.7614 2.23858 42 5 42H37C39.7614 42 42 39.7614 42 37V29H0Z" fill="black"/>
<path fill-rule="evenodd" clip-rule="evenodd" d="M39 22H3V24H39V22ZM0 19V27H42V19H0Z" fill="black"/>
</svg>
