<svg width="48" height="42" viewBox="0 0 48 42" fill="none" xmlns="http://www.w3.org/2000/svg">
<path fill-rule="evenodd" clip-rule="evenodd" d="M3.05176 30V3H44.0518V30H37.8469L27.0518 37.7907V30H3.05176ZM24.0518 33H2.05176C0.947188 33 0.0517578 32.1046 0.0517578 31V2C0.0517578 0.895431 0.947188 0 2.05176 0H45.0518C46.1563 0 47.0518 0.895431 47.0518 2V31C47.0518 32.1046 46.1563 33 45.0518 33H38.8164L27.2222 41.3674C25.8994 42.322 24.0518 41.3768 24.0518 39.7456V33Z" fill="black"/>
<path fill-rule="evenodd" clip-rule="evenodd" d="M2.05176 3L3.05176 2H44.0518L45.0518 3V30L44.0518 31H38.1701L27.637 38.6016L26.0518 37.7907V31H3.05176L2.05176 30V3ZM37.8469 30H44.0518V3H3.05176V30H27.0518V37.7907L37.8469 30ZM24.0518 32L25.0518 33V39.7456C25.0518 40.5612 25.9756 41.0338 26.637 40.5565L38.2312 32.1891L38.8164 32H45.0518C45.604 32 46.0518 31.5523 46.0518 31V2C46.0518 1.44772 45.604 1 45.0518 1H2.05176C1.49947 1 1.05176 1.44772 1.05176 2V31C1.05176 31.5523 1.49947 32 2.05176 32H24.0518ZM38.8164 33H45.0518C46.1563 33 47.0518 32.1046 47.0518 31V2C47.0518 0.895431 46.1563 0 45.0518 0H2.05176C0.947188 0 0.0517578 0.895431 0.0517578 2V31C0.0517578 32.1046 0.947188 33 2.05176 33H24.0518V39.7456C24.0518 41.3768 25.8994 42.322 27.2222 41.3674L38.8164 33Z" fill="black"/>
<path fill-rule="evenodd" clip-rule="evenodd" d="M11.5518 24C10.7233 24 10.0518 23.3284 10.0518 22.5C10.0518 21.6716 10.7233 21 11.5518 21H35.5518C36.3802 21 37.0518 21.6716 37.0518 22.5C37.0518 23.3284 36.3802 24 35.5518 24H11.5518ZM10.0518 10.5C10.0518 11.3284 10.7233 12 11.5518 12H35.5518C36.3802 12 37.0518 11.3284 37.0518 10.5C37.0518 9.67157 36.3802 9 35.5518 9H11.5518C10.7233 9 10.0518 9.67157 10.0518 10.5Z" fill="black"/>
<path fill-rule="evenodd" clip-rule="evenodd" d="M10.0518 16.5C10.0518 15.6716 10.7233 15 11.5518 15H25.5518C26.3802 15 27.0518 15.6716 27.0518 16.5C27.0518 17.3284 26.3802 18 25.5518 18H11.5518C10.7233 18 10.0518 17.3284 10.0518 16.5Z" fill="black"/>
</svg>
