<svg width="28" height="42" viewBox="0 0 28 42" fill="none" xmlns="http://www.w3.org/2000/svg">
<path fill-rule="evenodd" clip-rule="evenodd" d="M16.4834 18.4833L9.4834 11.4833L11.6047 9.36202L18.6047 16.362L16.4834 18.4833Z" fill="black"/>
<path fill-rule="evenodd" clip-rule="evenodd" d="M17 23L10 30L12.1213 32.1213L19.1213 25.1213L17 23Z" fill="black"/>
<path fill-rule="evenodd" clip-rule="evenodd" d="M7 11C9.20914 11 11 9.20914 11 7C11 4.79086 9.20914 3 7 3C4.79086 3 3 4.79086 3 7C3 9.20914 4.79086 11 7 11ZM7 14C10.866 14 14 10.866 14 7C14 3.13401 10.866 0 7 0C3.13401 0 0 3.13401 0 7C0 10.866 3.13401 14 7 14Z" fill="black"/>
<path fill-rule="evenodd" clip-rule="evenodd" d="M21 25C23.2091 25 25 23.2091 25 21C25 18.7909 23.2091 17 21 17C18.7909 17 17 18.7909 17 21C17 23.2091 18.7909 25 21 25ZM21 28C24.866 28 28 24.866 28 21C28 17.134 24.866 14 21 14C17.134 14 14 17.134 14 21C14 24.866 17.134 28 21 28Z" fill="black"/>
<path fill-rule="evenodd" clip-rule="evenodd" d="M7 39C9.20914 39 11 37.2091 11 35C11 32.7909 9.20914 31 7 31C4.79086 31 3 32.7909 3 35C3 37.2091 4.79086 39 7 39ZM7 42C10.866 42 14 38.866 14 35C14 31.134 10.866 28 7 28C3.13401 28 0 31.134 0 35C0 38.866 3.13401 42 7 42Z" fill="black"/>
</svg>
