<svg width="47" height="42" viewBox="0 0 47 42" fill="none" xmlns="http://www.w3.org/2000/svg">
<path fill-rule="evenodd" clip-rule="evenodd" d="M23.3977 8.17446L21.2764 6.05314C17.2201 1.99688 10.6435 1.9968 6.58728 6.05306C2.53104 10.1093 2.53102 16.6858 6.58723 20.742L23.3975 37.5524L40.1607 20.7892L40.2081 20.7421L40.2108 20.7394C44.2644 16.6829 44.2635 10.1084 40.2081 6.05306C36.1518 1.9968 29.5753 1.9968 25.5191 6.05306L23.3977 8.17446ZM42.3294 22.8634L42.2762 22.9163L23.3975 41.7951L4.46581 22.8634C-0.761958 17.6356 -0.761847 9.15955 4.46596 3.93174C9.69379 -1.29609 18.1698 -1.29609 23.3976 3.93174C28.6254 -1.29609 37.1016 -1.29609 42.3294 3.93174C47.5573 9.15957 47.5573 17.6356 42.3294 22.8634Z" fill="black"/>
<path fill-rule="evenodd" clip-rule="evenodd" d="M37.2797 18.0946C39.9132 15.9985 40.5259 12.1936 38.6043 9.36251C36.6827 6.53145 32.9204 5.69607 30 7.3697L31.6941 9.86556C33.2338 9.11374 35.1318 9.58842 36.1221 11.0473C37.1123 12.5062 36.8527 14.4454 35.5856 15.5987L37.2797 18.0946Z" fill="black"/>
</svg>
