<svg width="43" height="42" viewBox="0 0 43 42" fill="none" xmlns="http://www.w3.org/2000/svg">
<path fill-rule="evenodd" clip-rule="evenodd" d="M20.613 0.353362C21.1103 -0.117787 21.8897 -0.117787 22.387 0.353362L42.5955 19.5005C43.4406 20.3012 42.8733 21.7221 41.7085 21.7221H38.2555V40.7125C38.2555 41.4236 37.6784 42 36.9666 42H30.5222V30.4126C30.5222 29.7016 29.9451 29.1251 29.2333 29.1251H24.0778C23.3659 29.1251 22.7889 29.7016 22.7889 30.4126V42H6.03344C5.32161 42 4.74455 41.4236 4.74455 40.7125V21.7221H1.29148C0.126714 21.7221 -0.44059 20.3012 0.404494 19.5005L20.613 0.353362ZM11.5999 21.8873C10.8881 21.8873 10.311 22.4637 10.311 23.1747V27.0372C10.311 27.7483 10.8881 28.3247 11.5999 28.3247H15.4666C16.1784 28.3247 16.7555 27.7483 16.7555 27.0372V23.1747C16.7555 22.4637 16.1784 21.8873 15.4666 21.8873H11.5999Z" fill="black"/>
</svg>
