<svg width="51" height="42" viewBox="0 0 51 42" fill="none" xmlns="http://www.w3.org/2000/svg">
<path fill-rule="evenodd" clip-rule="evenodd" d="M17.7952 11H3.79517V39H17.7952V11ZM0.795166 8V42H20.7952V8H0.795166Z" fill="black"/>
<path fill-rule="evenodd" clip-rule="evenodd" d="M13.7952 0.87868L11.6738 3L20.7952 12.1213V7.87868L13.7952 0.87868Z" fill="black"/>
<path fill-rule="evenodd" clip-rule="evenodd" d="M13.7952 3H47.7952V31H17.7952V34H50.7952V0H10.7952V11H13.7952V3Z" fill="black"/>
<path fill-rule="evenodd" clip-rule="evenodd" d="M43 17C43 18.1046 42.1046 19 41 19C39.8954 19 39 18.1046 39 17C39 15.8954 39.8954 15 41 15C42.1046 15 43 15.8954 43 17ZM45.2868 19.575C45.7396 18.8229 46 17.9419 46 17C46 14.2386 43.7614 12 41 12C38.2386 12 36 14.2386 36 17C36 17.9419 36.2604 18.8229 36.7132 19.575L41 27L45.2868 19.575Z" fill="black"/>
<path fill-rule="evenodd" clip-rule="evenodd" d="M43 17C43 15.8954 42.1046 15 41 15C39.8954 15 39 15.8954 39 17C39 18.1046 39.8954 19 41 19C42.1046 19 43 18.1046 43 17ZM36.7132 19.575C36.6753 19.512 36.6387 19.4481 36.6035 19.3833C36.2186 18.6748 36 17.8629 36 17C36 14.2386 38.2386 12 41 12C43.7614 12 46 14.2386 46 17C46 17.9419 45.7396 18.8229 45.2868 19.575L41 27L36.7132 19.575Z" fill="black"/>
<path fill-rule="evenodd" clip-rule="evenodd" d="M24.2952 27H21.2952V24H24.2952V27ZM30.2952 27H27.2952V24H30.2952V27ZM36.2952 27H33.2952V24H36.2952V27Z" fill="black"/>
</svg>
