<svg width="28" height="27" viewBox="0 0 28 27" fill="none" xmlns="http://www.w3.org/2000/svg">
<path fill-rule="evenodd" clip-rule="evenodd" d="M8.98644 18.798C8.40066 18.2122 8.40065 17.2624 8.98644 16.6766L22.8651 2.79797C23.4509 2.21218 24.4007 2.21218 24.9864 2.79797C25.5722 3.38375 25.5722 4.3335 24.9864 4.91929L11.1078 18.798C10.522 19.3838 9.57223 19.3838 8.98644 18.798Z" fill="currentColor"/>
<path fill-rule="evenodd" clip-rule="evenodd" d="M16 1.5C16 0.671573 16.6716 5.87108e-08 17.5 1.31134e-07L26.5 9.17939e-07C27.3284 9.90363e-07 28 0.671574 28 1.5C28 2.32843 27.3284 3 26.5 3L17.5 3C16.6716 3 16 2.32843 16 1.5Z" fill="currentColor"/>
<path fill-rule="evenodd" clip-rule="evenodd" d="M26.5 12C25.6716 12 25 11.3284 25 10.5L25 1.5C25 0.671573 25.6716 2.93554e-08 26.5 6.55671e-08C27.3284 1.01779e-07 28 0.671573 28 1.5L28 10.5C28 11.3284 27.3284 12 26.5 12Z" fill="currentColor"/>
<path d="M4 0H10C10 0 10.3247 0 10.5 0C11.3284 0 12 0.67157 12 1.5C12 2.32843 11.3284 3 10.5 3C10.3247 3 10 3 10 3H4C3.44772 3 3 3.44769 3 4V23C3 23.5523 3.44772 24 4 24H24C24.5523 24 25 23.5523 25 23V18C25 18 25 17.6753 25 17.5C25 16.6716 25.6716 16 26.5 16C27.3284 16 28 16.6716 28 17.5C28 17.6753 28 18 28 18V23C28 25.2092 26.2091 27 24 27H4C1.79086 27 0 25.2092 0 23V4C0 1.79083 1.79086 0 4 0Z" fill="currentColor"/>
</svg>
