<svg width="29" height="51" viewBox="0 0 29 51" fill="none" xmlns="http://www.w3.org/2000/svg">
<path fill-rule="evenodd" clip-rule="evenodd" d="M0.371596 44.6542L5.76331 47.1684L10.7829 43.374L0.0517578 38.3699L0.371596 44.6542ZM4.34275 48.2423L0.46211 46.4327L0.694564 51L4.34275 48.2423Z" fill="black"/>
<path fill-rule="evenodd" clip-rule="evenodd" d="M20.8636 16.1594L14.7012 13.2858L4.3321 35.5225L10.4945 38.3961L20.8636 16.1594ZM13.2502 9.29905L0.345324 36.9736L11.9455 42.3829L24.8504 14.7083L13.2502 9.29905Z" fill="black"/>
<path fill-rule="evenodd" clip-rule="evenodd" d="M18.9073 3.98676L17.8248 6.30807L24.0485 9.21022L25.1309 6.88892L18.9073 3.98676ZM18.3625 0.422605C17.862 0.1892 17.267 0.405754 17.0336 0.906294L13.838 7.75913L25.4996 13.197L28.6951 6.34416C28.9285 5.84362 28.712 5.24864 28.2114 5.01523L18.3625 0.422605Z" fill="black"/>
</svg>
