<svg width="50" height="42" viewBox="0 0 50 42" fill="none" xmlns="http://www.w3.org/2000/svg">
<path fill-rule="evenodd" clip-rule="evenodd" d="M39.364 21.2426L37.2426 19.1213L35.1213 21.2426L37.2426 23.364L35.1213 25.4853L37.2426 27.6066L39.364 25.4853L41.4853 27.6066L43.6066 25.4853L41.4853 23.364L43.6066 21.2426L41.4853 19.1213L39.364 21.2426Z" fill="black"/>
<path fill-rule="evenodd" clip-rule="evenodd" d="M22 25H19V22H22V25ZM28 25H25V22H28V25ZM34 25H31V22H34V25Z" fill="black"/>
<path fill-rule="evenodd" clip-rule="evenodd" d="M17 11H3V39H17V11ZM0 8V42H20V8H0Z" fill="black"/>
<path fill-rule="evenodd" clip-rule="evenodd" d="M13 0.87868L10.8787 3L20 12.1213V7.87868L13 0.87868Z" fill="black"/>
<path fill-rule="evenodd" clip-rule="evenodd" d="M13 3H47V31H17V34H50V0H10V11H13V3Z" fill="black"/>
</svg>
