<svg width="78" height="52" viewBox="0 0 78 52" xmlns="http://www.w3.org/2000/svg">
<path fill-rule="evenodd" clip-rule="evenodd" d="M12.7387 17.6555C5.3876 19.7292 0 26.4855 0 34.5C0 44.165 7.83502 52 17.5 52C27.165 52 35 44.165 35 34.5C35 34.4281 34.9996 34.3563 34.9987 34.2845C34.9982 34.245 34.9976 34.2054 34.9969 34.1659C34.9958 34.1105 34.9945 34.0552 34.993 34H35C35 17.5337 23.5348 3.8349 8.21683 0.104309C7.98975 0.036438 7.74915 0 7.5 0C6.11929 0 5 1.11926 5 2.5C5 2.89752 5.09277 3.27338 5.25784 3.60706L5.5 4C9.01059 7.94312 11.2921 12.421 12.7387 17.6555Z" fill="currentColor"/>
<path fill-rule="evenodd" clip-rule="evenodd" d="M55.7387 17.6555C48.3876 19.7292 43 26.4855 43 34.5C43 44.165 50.835 52 60.5 52C70.165 52 78 44.165 78 34.5C78 34.4281 77.9996 34.3563 77.9987 34.2845C77.9976 34.1895 77.9956 34.0947 77.993 34H78C78 17.5337 66.5348 3.8349 51.2168 0.104309C50.9897 0.036438 50.7491 0 50.5 0C49.1193 0 48 1.11926 48 2.5C48 2.89752 48.0928 3.27338 48.2578 3.60706L48.5 4C52.0106 7.94312 54.2921 12.421 55.7387 17.6555Z" fill="currentColor"/>
</svg>
