<svg width="78" height="52" viewBox="0 0 78 52" xmlns="http://www.w3.org/2000/svg">
<path fill-rule="evenodd" clip-rule="evenodd" d="M65.2613 34.3445C72.6124 32.2708 78 25.5145 78 17.5C78 7.83502 70.165 0 60.5 0C50.835 0 43 7.83502 43 17.5C43 17.5719 43.0004 17.6437 43.0013 17.7155C43.0018 17.755 43.0024 17.7946 43.0031 17.8341C43.0042 17.8895 43.0055 17.9448 43.007 18H43C43 34.4663 54.4652 48.1651 69.7832 51.8957C70.0103 51.9636 70.2509 52 70.5 52C71.8807 52 73 50.8807 73 49.5C73 49.1025 72.9072 48.7266 72.7422 48.3929L72.5 48C68.9894 44.0569 66.7079 39.579 65.2613 34.3445Z" fill="currentColor"/>
<path fill-rule="evenodd" clip-rule="evenodd" d="M22.2613 34.3445C29.6124 32.2708 35 25.5145 35 17.5C35 7.83502 27.165 0 17.5 0C7.83502 0 0 7.83502 0 17.5C0 17.5719 0.000427246 17.6437 0.00128174 17.7155C0.00244141 17.8105 0.00436401 17.9053 0.00701904 18H0C0 34.4663 11.4652 48.1651 26.7832 51.8957C27.0103 51.9636 27.2509 52 27.5 52C28.8807 52 30 50.8807 30 49.5C30 49.1025 29.9072 48.7266 29.7422 48.3929L29.5 48C25.9894 44.0569 23.7079 39.579 22.2613 34.3445Z" fill="currentColor"/>
</svg>
