<svg width="24" height="27" viewBox="0 0 24 27" fill="currentColor" xmlns="http://www.w3.org/2000/svg">
<path d="M10.5 25C10.5 25.8284 11.1716 26.5 12 26.5C12.8284 26.5 13.5 25.8284 13.5 25L10.5 25ZM13.0607 0.93934C12.4749 0.353553 11.5251 0.353553 10.9393 0.93934L1.3934 10.4853C0.807611 11.0711 0.807611 12.0208 1.3934 12.6066C1.97918 13.1924 2.92893 13.1924 3.51472 12.6066L12 4.12132L20.4853 12.6066C21.0711 13.1924 22.0208 13.1924 22.6066 12.6066C23.1924 12.0208 23.1924 11.0711 22.6066 10.4853L13.0607 0.93934ZM13.5 25L13.5 2L10.5 2L10.5 25L13.5 25Z" fill="currentColor"/>
</svg>
